<svg width="182" height="60" viewBox="0 0 182 60" fill="none" xmlns="http://www.w3.org/2000/svg">
<path d="M22.7921 0.00671387H24.4017C29.99 0.130085 35.4871 2.41246 39.4353 6.45287C37.9775 7.96417 36.4893 9.41379 35.0619 10.9251C32.8448 8.88946 30.1722 7.31647 27.2566 6.7613C22.9439 5.83601 18.2972 6.66877 14.6831 9.16704C10.7349 11.7887 8.06224 16.2301 7.4852 20.9799C6.84741 25.668 8.15336 30.6028 11.1601 34.2423C14.0453 37.7892 18.4491 40.0099 23.0047 40.1641C27.2566 40.4109 31.6907 39.0846 34.7886 36.062C37.2182 33.9339 38.342 30.6954 38.7064 27.5494C33.6648 27.5494 28.6233 27.5802 23.5817 27.5494V21.1958H44.8109C45.9043 28.012 44.325 35.6919 39.2227 40.5651C35.8212 44.0195 31.1137 46.0551 26.3151 46.4561C21.6684 46.9187 16.8698 46.0243 12.7393 43.7419C7.78891 41.0586 3.8407 36.5247 1.89697 31.1888C0.0747157 26.2848 0.0443448 20.7331 1.74511 15.7983C3.29402 11.2952 6.27036 7.31647 10.0971 4.54061C13.772 1.7956 18.2365 0.2843 22.7921 0.00671387Z" fill="#120D26"/>
<path d="M144.579 1.60913H151.078V45.6528C148.922 45.6528 146.735 45.6836 144.579 45.6219C144.609 30.9715 144.579 16.2903 144.579 1.60913Z" fill="#120D26"/>
<path d="M59.2678 16.8764C63.2768 16.1053 67.6198 16.9689 70.9302 19.4055C73.937 21.5645 76.0326 24.9572 76.6703 28.6584C77.4904 32.9455 76.4577 37.6336 73.7244 41.0263C70.7784 44.82 65.9494 46.8556 61.2419 46.5472C56.9293 46.3005 52.7381 44.1106 50.187 40.5328C47.3017 36.585 46.6032 31.1566 48.1825 26.5302C49.7618 21.5645 54.2263 17.7708 59.2678 16.8764ZM60.179 22.7365C58.5389 23.1683 57.0204 24.1245 55.9271 25.4815C52.9811 29.0593 53.1633 34.8886 56.413 38.2196C58.2656 40.1319 61.0597 41.0263 63.6412 40.502C66.0405 40.0702 68.1361 38.4355 69.2902 36.2765C71.2947 32.6062 70.7177 27.548 67.6502 24.6796C65.6761 22.8291 62.7909 22.058 60.179 22.7365Z" fill="#120D26"/>
<path d="M91.4609 16.8763C96.0469 15.9819 101.058 17.2773 104.49 20.5466C110.078 25.6357 110.686 35.1662 105.917 41.0263C103.032 44.7275 98.3551 46.7631 93.7387 46.5472C89.335 46.4238 84.9919 44.2031 82.3801 40.5328C79.4341 36.4924 78.7963 30.9407 80.4667 26.2217C82.1371 21.4102 86.5105 17.7399 91.4609 16.8763ZM92.372 22.7365C90.732 23.1683 89.2135 24.1244 88.1201 25.4507C85.2045 28.9667 85.326 34.7035 88.4542 38.0654C90.3068 40.0702 93.1921 41.0572 95.8647 40.502C98.2336 40.0393 100.36 38.4355 101.514 36.2765C103.488 32.5754 102.911 27.5171 99.8129 24.6487C97.8388 22.7982 94.9536 22.0579 92.372 22.7365Z" fill="#120D26"/>
<path d="M118.764 18.6652C122.257 16.4445 126.903 15.8277 130.669 17.7399C131.854 18.2642 132.826 19.1587 133.767 20.0531C133.798 19.2204 133.767 18.3568 133.798 17.4932C135.832 17.524 137.867 17.4932 139.933 17.524V44.7274C139.902 48.8295 138.87 53.1784 135.954 56.1701C132.765 59.4703 127.875 60.4881 123.472 59.8096C118.764 59.1002 114.664 55.615 112.842 51.2044C114.664 50.31 116.577 49.6006 118.46 48.7679C119.523 51.297 121.68 53.456 124.383 53.9495C127.086 54.4429 130.214 53.7644 131.975 51.482C133.858 49.138 133.858 45.9303 133.767 43.0619C132.37 44.4499 130.761 45.6836 128.817 46.1462C124.595 47.3491 119.949 45.8686 116.699 42.9694C113.419 40.0702 111.475 35.5979 111.657 31.1566C111.748 26.1292 114.543 21.2868 118.764 18.6652ZM125.051 22.6131C123.198 22.9215 121.467 23.9702 120.283 25.4198C117.428 28.8742 117.428 34.3951 120.313 37.7878C121.953 39.7926 124.595 40.9029 127.146 40.6253C129.546 40.3786 131.763 38.8364 132.947 36.7083C134.952 33.0997 134.618 28.1957 131.915 25.0497C130.244 23.1066 127.572 22.1504 125.051 22.6131Z" fill="#120D26"/>
<path d="M158.884 20.2383C162.528 16.7839 168.147 15.6118 172.824 17.4316C177.258 19.1279 180.083 23.4151 181.51 27.8256C174.919 30.6015 168.359 33.3465 161.769 36.1224C162.68 37.8804 164.077 39.4843 165.96 40.132C168.602 41.0881 171.761 40.7488 173.978 38.9599C174.859 38.2814 175.557 37.3869 176.225 36.5233C177.896 37.6645 179.566 38.7749 181.237 39.9161C178.868 43.5247 174.889 46.0538 170.607 46.4548C165.869 47.0408 160.827 45.1902 157.76 41.4274C152.718 35.5055 153.204 25.5741 158.884 20.2383ZM162.133 25.9442C161.101 27.4555 160.676 29.3061 160.706 31.1258C165.11 29.2753 169.513 27.4247 173.917 25.5433C173.188 23.8161 171.427 22.7674 169.635 22.4898C166.75 21.9655 163.743 23.5385 162.133 25.9442Z" fill="#120D26"/>
</svg>
