<svg width="258" height="56" viewBox="0 0 258 56" fill="none" xmlns="http://www.w3.org/2000/svg">
<g clip-path="url(#clip0_2335_673)">
<path d="M257.106 25.3823V20.8539H251.502V13.814L251.313 13.8723L246.05 15.4883L245.946 15.52V20.8541H237.638V17.8825C237.638 16.4989 237.947 15.44 238.554 14.7339C239.158 14.0362 240.021 13.6815 241.122 13.6815C241.913 13.6815 242.732 13.8685 243.557 14.2374L243.764 14.3301V9.56112L243.666 9.52525C242.897 9.24777 241.851 9.10803 240.554 9.10803C238.919 9.10803 237.434 9.46497 236.139 10.1724C234.843 10.8808 233.824 11.8921 233.11 13.1778C232.398 14.4621 232.037 15.9454 232.037 17.5869V20.8539H228.135V25.3823H232.037V44.4594H237.638V25.3823H245.946V37.5055C245.946 42.4984 248.293 45.0286 252.922 45.0286C253.682 45.0286 254.483 44.9392 255.3 44.7641C256.132 44.5842 256.699 44.4046 257.032 44.2128L257.106 44.169V39.5988L256.878 39.75C256.574 39.9532 256.196 40.1194 255.752 40.2429C255.306 40.3687 254.934 40.4317 254.645 40.4317C253.561 40.4317 252.759 40.1385 252.261 39.5599C251.758 38.9761 251.502 37.9551 251.502 36.5268V25.3823H257.106ZM215.625 40.4325C213.592 40.4325 211.989 39.756 210.86 38.4233C209.723 37.084 209.147 35.1745 209.147 32.7484C209.147 30.2454 209.723 28.2863 210.86 26.9233C211.991 25.5693 213.578 24.8821 215.58 24.8821C217.522 24.8821 219.068 25.5384 220.176 26.8339C221.289 28.1361 221.854 30.0795 221.854 32.6117C221.854 35.175 221.323 37.144 220.275 38.4612C219.235 39.7684 217.671 40.4325 215.625 40.4325ZM215.874 20.2852C211.995 20.2852 208.915 21.4258 206.718 23.6753C204.523 25.925 203.41 29.0383 203.41 32.9295C203.41 36.6255 204.496 39.5983 206.639 41.7641C208.782 43.9306 211.699 45.0281 215.307 45.0281C219.067 45.0281 222.087 43.8716 224.283 41.591C226.478 39.3128 227.59 36.2289 227.59 32.4286C227.59 28.6749 226.547 25.6799 224.487 23.5286C222.427 21.3762 219.528 20.2852 215.874 20.2852ZM194.378 20.2852C191.739 20.2852 189.557 20.9625 187.89 22.2978C186.212 23.6411 185.361 25.4029 185.361 27.5348C185.361 28.643 185.545 29.6274 185.906 30.4623C186.27 31.3 186.833 32.0376 187.58 32.6565C188.322 33.2705 189.468 33.9137 190.985 34.568C192.261 35.0948 193.212 35.5404 193.817 35.8916C194.408 36.2359 194.827 36.5819 195.064 36.9189C195.294 37.2487 195.41 37.7 195.41 38.257C195.41 39.8429 194.227 40.6145 191.792 40.6145C190.888 40.6145 189.858 40.4252 188.729 40.0521C187.609 39.6846 186.551 39.1465 185.593 38.4565L185.361 38.2891V43.701L185.446 43.7408C186.239 44.108 187.238 44.4176 188.416 44.6612C189.591 44.905 190.659 45.0291 191.587 45.0291C194.451 45.0291 196.756 44.3486 198.439 43.0053C200.132 41.6527 200.99 39.8494 200.99 37.6437C200.99 36.0526 200.528 34.6881 199.617 33.5876C198.713 32.4961 197.144 31.4941 194.955 30.6083C193.211 29.9059 192.093 29.3228 191.632 28.8752C191.188 28.4428 190.963 27.8313 190.963 27.0569C190.963 26.3704 191.241 25.8204 191.813 25.375C192.389 24.9274 193.191 24.6998 194.197 24.6998C195.13 24.6998 196.085 24.8477 197.035 25.1377C197.983 25.4276 198.817 25.8159 199.513 26.2909L199.742 26.4478V21.3142L199.654 21.2763C199.012 21.0001 198.165 20.7637 197.137 20.5719C196.114 20.3814 195.186 20.2852 194.378 20.2852ZM170.758 40.4325C168.725 40.4325 167.122 39.756 165.993 38.4233C164.856 37.084 164.281 35.175 164.281 32.7484C164.281 30.2454 164.856 28.2863 165.994 26.9233C167.123 25.5693 168.711 24.8821 170.713 24.8821C172.655 24.8821 174.201 25.5384 175.309 26.8339C176.422 28.1361 176.987 30.0795 176.987 32.6117C176.987 35.175 176.455 37.144 175.408 38.4612C174.368 39.7684 172.804 40.4325 170.758 40.4325ZM171.008 20.2852C167.128 20.2852 164.047 21.4258 161.851 23.6753C159.656 25.925 158.542 29.0383 158.542 32.9295C158.542 36.6269 159.629 39.5983 161.773 41.7641C163.916 43.9306 166.832 45.0281 170.44 45.0281C174.2 45.0281 177.22 43.8716 179.416 41.591C181.611 39.3128 182.724 36.2289 182.724 32.4286C182.724 28.6749 181.68 25.6799 179.62 23.5286C177.559 21.3762 174.661 20.2852 171.008 20.2852ZM150.039 24.9419V20.8539H144.506V44.4589H150.039V32.384C150.039 30.3308 150.503 28.644 151.419 27.37C152.322 26.1111 153.527 25.4732 154.997 25.4732C155.496 25.4732 156.055 25.5556 156.661 25.7188C157.261 25.8809 157.695 26.057 157.951 26.2423L158.184 26.4115V20.8135L158.094 20.7749C157.579 20.5552 156.85 20.4444 155.927 20.4444C154.537 20.4444 153.293 20.8927 152.227 21.7755C151.291 22.5514 150.615 23.6152 150.098 24.9419H150.039ZM134.597 20.2852C132.058 20.2852 129.794 20.8315 127.868 21.9083C125.938 22.9875 124.445 24.5284 123.43 26.4877C122.419 28.4423 121.906 30.7254 121.906 33.2715C121.906 35.5018 122.403 37.5486 123.387 39.3524C124.371 41.1593 125.764 42.5729 127.528 43.5533C129.289 44.5324 131.324 45.0288 133.577 45.0288C136.207 45.0288 138.452 44.5013 140.252 43.4608L140.325 43.419V38.3319L140.092 38.5023C139.277 39.0984 138.365 39.5741 137.385 39.9169C136.407 40.2594 135.515 40.4325 134.733 40.4325C132.562 40.4325 130.819 39.7507 129.554 38.4067C128.286 37.0609 127.643 35.171 127.643 32.793C127.643 30.4001 128.314 28.4617 129.635 27.0314C130.952 25.6054 132.699 24.8821 134.825 24.8821C136.644 24.8821 138.416 25.5001 140.093 26.7206L140.325 26.8897V21.5297L140.25 21.4873C139.619 21.1329 138.758 20.8402 137.69 20.6183C136.626 20.3968 135.585 20.2852 134.597 20.2852ZM118.095 20.8541H112.561V44.4589H118.095V20.8541ZM115.385 10.7983C114.474 10.7983 113.68 11.1094 113.027 11.7259C112.372 12.3441 112.039 13.1225 112.039 14.0412C112.039 14.9453 112.368 15.7095 113.017 16.3113C113.662 16.9114 114.459 17.2155 115.385 17.2155C116.311 17.2155 117.111 16.9114 117.763 16.3123C118.42 15.7095 118.753 14.9456 118.753 14.0412C118.753 13.1547 118.429 12.3842 117.79 11.7508C117.152 11.1186 116.343 10.7983 115.385 10.7983ZM101.579 19.1125V44.4589H107.226V11.5209H99.41L89.4757 35.9863L79.8351 11.5209H71.7012V44.4587H77.0079V19.11H77.1901L87.3703 44.4589H91.3751L101.396 19.1125H101.579Z" fill="#120D26"/>
<path d="M26.5396 26.6351H0.509277V0.514038H26.5396V26.6351Z" fill="#120D26"/>
<path d="M55.2799 26.6351H29.25V0.514038H55.2799V26.6351Z" fill="#120D26"/>
<path d="M26.5389 55.4859H0.509277V29.3651H26.5389V55.4859Z" fill="#120D26"/>
<path d="M55.2799 55.4859H29.25V29.3651H55.2799V55.4859Z" fill="#120D26"/>
</g>
<defs>
<clipPath id="clip0_2335_673">
<rect width="256.597" height="55" fill="white" transform="translate(0.509277 0.5)"/>
</clipPath>
</defs>
</svg>
