<svg width="16" height="9" viewBox="0 0 16 9" fill="none" xmlns="http://www.w3.org/2000/svg">
<rect width="16" height="9" fill="#E5E5E5"/>
<g clip-path="url(#clip0_0_1)">
<rect width="1440" height="5465" transform="translate(-1326 -5010)" fill="white"/>
<rect width="1440" height="545" transform="translate(-1326 -91)" fill="white"/>
<g filter="url(#filter0_d_0_1)">
<rect x="-156" y="-22" width="190" height="53" rx="8" fill="white" shape-rendering="crispEdges"/>
<path d="M0.46967 0.46967C0.735936 0.203403 1.1526 0.179197 1.44621 0.397052L1.53033 0.46967L8 6.939L14.4697 0.46967C14.7359 0.203403 15.1526 0.179197 15.4462 0.397052L15.5303 0.46967C15.7966 0.735936 15.8208 1.1526 15.6029 1.44621L15.5303 1.53033L8.53033 8.53033C8.26406 8.7966 7.8474 8.8208 7.55379 8.60295L7.46967 8.53033L0.46967 1.53033C0.176777 1.23744 0.176777 0.762563 0.46967 0.46967Z" fill="#FF7058"/>
</g>
</g>
<defs>
<filter id="filter0_d_0_1" x="-176" y="-32" width="230" height="93" filterUnits="userSpaceOnUse" color-interpolation-filters="sRGB">
<feFlood flood-opacity="0" result="BackgroundImageFix"/>
<feColorMatrix in="SourceAlpha" type="matrix" values="0 0 0 0 0 0 0 0 0 0 0 0 0 0 0 0 0 0 127 0" result="hardAlpha"/>
<feOffset dy="10"/>
<feGaussianBlur stdDeviation="10"/>
<feComposite in2="hardAlpha" operator="out"/>
<feColorMatrix type="matrix" values="0 0 0 0 0.945833 0 0 0 0 0.401033 0 0 0 0 0.0945833 0 0 0 0.15 0"/>
<feBlend mode="normal" in2="BackgroundImageFix" result="effect1_dropShadow_0_1"/>
<feBlend mode="normal" in="SourceGraphic" in2="effect1_dropShadow_0_1" result="shape"/>
</filter>
<clipPath id="clip0_0_1">
<rect width="1440" height="5465" fill="white" transform="translate(-1326 -5010)"/>
</clipPath>
</defs>
</svg>
